<svg width="20" height="20" viewBox="0 0 20 20" fill="none" xmlns="http://www.w3.org/2000/svg">
<path d="M19.8043 18.7084L14.638 13.5421C15.8121 12.0939 16.5558 10.2544 16.5558 8.25832C16.5558 3.7182 12.8376 0 8.25832 0C3.67906 0 0 3.7182 0 8.25832C0 12.7984 3.7182 16.5166 8.25832 16.5166C10.2544 16.5166 12.0939 15.8121 13.5421 14.5988L18.7084 19.7652C18.9824 20.0391 19.4521 20.0391 19.726 19.7652L19.8043 19.6869C20.0783 19.4521 20.0783 18.9824 19.8043 18.7084ZM8.25832 15.3816C4.34442 15.3816 1.17417 12.1722 1.17417 8.25832C1.17417 4.34442 4.34442 1.17417 8.25832 1.17417C12.1722 1.17417 15.3425 4.34442 15.3425 8.25832C15.3425 12.1722 12.1722 15.3816 8.25832 15.3816Z" fill="white" fill-opacity="0.2"/>
</svg>
